<?xml version="1.0" encoding="utf-8"?>
<!-- Generator: Adobe Illustrator 19.0.0, SVG Export Plug-In . SVG Version: 6.00 Build 0)  -->
<svg version="1.1" id="Capa_1" xmlns="http://www.w3.org/2000/svg" xmlns:xlink="http://www.w3.org/1999/xlink" x="0px" y="0px"
	 viewBox="0 0 555.2 182" style="enable-background:new 0 0 555.2 182;" xml:space="preserve">
<style type="text/css">
	.st0{fill:#FFFFFF;}
</style>
<g>
	<path class="st0" d="M81.9,5C78.8,5,75,5.7,70.5,7.1C66,8.5,61.3,10.5,56.4,13c-4.9,2.5-9.8,5.5-14.6,8.9c-4.8,3.5-9.1,7.2-13,11.3
		c-3.8,4.1-6.9,8.4-9.4,13c-2.4,4.6-3.6,9.3-3.6,14c0,4,1.4,7,4.3,9.1c2.9,2.1,6.6,3.1,11.1,3.1c2.6,0,5-0.4,7.1-1.2
		c2.1-0.8,3.6-2.2,4.5-4.3c0.8-1.6,0.9-3.2,0.6-4.7c-0.4-1.5-0.9-2.9-1.7-4c-0.8-1.2-1.5-2.1-2.3-2.9c-0.8-0.8-1.1-1.2-1-1.4
		c0.3-0.9,0.9-1.4,1.7-1.6c0.9-0.2,1.7-0.1,2.4,0.4c0.8,0.4,1.2,0.7,1.3,0.8c0.2,0.3,0.5,0.6,0.9,1c0.5,0.5,1,1.4,1.7,2.7
		c0.5,1,0.8,2.4,0.9,4.2c0.1,1.7-0.4,3.8-1.4,6c-1.6,3.4-4.2,6-7.8,7.9c-3.6,1.8-7.6,2.8-12,2.8c-4.1,0-7.7-0.6-10.9-1.7
		c-3.2-1.1-6-2.6-8.2-4.5c-2.3-1.9-4-4.1-5.2-6.7C0.6,62.4,0,59.6,0,56.7c0-4.3,1.1-8.6,3.4-13c2.3-4.4,5.4-8.8,9.3-13
		c3.9-4.2,8.5-8.2,13.8-11.9c5.3-3.7,11-7,17.2-9.8c6.2-2.8,12.6-5,19.3-6.6C69.8,0.8,76.5,0,83.2,0c5.3,0,9.5,1,12.7,3
		c3.2,2,5.6,4.5,7.2,7.3c1.7,2.8,2.7,5.8,3.3,8.9c0.5,3.1,0.8,5.6,0.8,7.6c0,3.6-1.1,7.8-3.4,12.7c-2.3,4.9-5.1,9.9-8.4,15.2
		c-3.4,5.3-7,10.6-11,15.8c-4,5.2-7.6,10.1-11,14.5c-3.4,4.4-6.2,8.2-8.4,11.3c-2.3,3.1-3.4,5.2-3.4,6.2
		c10.1-10.6,19.3-20,27.6-28.4c3.5-3.5,7-7,10.6-10.4c3.5-3.4,6.8-6.5,9.8-9.1c3-2.6,5.6-4.8,7.7-6.5c2.2-1.7,3.7-2.5,4.5-2.5
		c1.7,0,3.3,0.4,4.8,1.3c1.5,0.9,2.9,2,4,3.3c1.2,1.3,2.1,2.6,2.8,4.1c0.7,1.5,1.1,2.7,1.1,3.8c0,0.9-0.3,1.9-0.9,3.3
		c-0.6,1.3-1.4,2.8-2.5,4.5c-1,1.7-2.2,3.5-3.5,5.3c-1.3,1.8-2.6,3.7-4,5.5c-3.1,4.3-6.7,8.8-10.8,13.8
		c-5.4,6.8-10.5,13.5-15.3,20.2c-4.8,6.7-8.6,12.7-11.5,18.2c1-1,2.6-2.6,4.6-4.7c2-2.1,4.4-4.6,7.1-7.3c2.7-2.7,5.6-5.7,8.7-8.9
		c3.1-3.2,6.3-6.4,9.6-9.7c8-8,14.4-14.2,19.1-18.6c4.7-4.4,8.2-7.6,10.6-9.6c2.4-2,4-3.2,4.7-3.5c0.8-0.3,1.3-0.5,1.6-0.5
		c1.5,0,3,0.4,4.3,1.2c1.4,0.8,2.6,1.8,3.5,2.9c1,1.1,1.8,2.3,2.4,3.6c0.6,1.3,0.9,2.4,0.9,3.3c0,1.5-0.9,3.6-2.8,6.4
		c-1.9,2.7-4.3,6-7.2,9.9c-2.2,2.9-4.6,6.1-7.2,9.4c-2.6,3.4-5,6.9-7.2,10.6c-2.2,3.7-4.1,7.7-5.6,11.8c-1.5,4.2-2.3,8.5-2.3,13
		c0,5.6,0.9,10.7,2.6,15.4c1.7,4.7,4,8.7,6.9,12.1c2.8,3.4,6,6.1,9.6,8c3.6,1.9,7.2,2.9,10.9,2.9c4.3,0,7.8-0.9,10.5-2.7
		c2.6-1.8,4.7-3.8,6.3-6c1.6-2.2,2.7-4.2,3.3-6c0.7-1.8,1.1-2.7,1.4-2.7c1.8,0,3.2,0.6,4.1,1.8c0.4,0.7,0.6,1.4,0.7,2.1
		c0.1,0.8,0.1,1.5,0.1,2.2c0,0.7-0.2,1.5-0.5,2.5c0,0.1-0.4,0.9-1.2,2.3c-0.8,1.4-2.2,3-4,4.8c-1.7,1.6-4.1,3.2-7.3,4.7
		c-3.2,1.5-7.3,2.3-12.3,2.3c-5.1,0-10.3-1-15.6-3.1c-5.3-2.1-10.1-5.1-14.5-9.1c-4.3-4-7.9-8.9-10.7-14.7
		c-2.8-5.8-4.2-12.5-4.2-19.9c0-4.3,0.5-8.3,1.6-12.3c1-3.9,2.4-7.6,4-11c1.6-3.4,3.4-6.5,5.2-9.4c1.9-2.9,3.7-5.5,5.4-7.7
		c2.2-3,4.3-5.7,6.4-8.1c2.1-2.4,3.9-4.3,5.3-5.8c-2,1.4-4.6,3.5-7.7,6.3c-3.2,2.8-6.7,6-10.5,9.6c-3.8,3.6-7.8,7.6-12,11.8
		c-4.2,4.3-8.3,8.5-12.3,12.8c-4,4.3-7.8,8.4-11.3,12.4c-3.5,4-6.6,7.6-9.1,10.8c-2.1,0.2-4,0-5.7-0.7c-1.4-0.6-2.7-1.7-3.9-3.3
		c-1.2-1.6-1.8-4.1-1.8-7.4c0-2.3,0.7-5.1,2-8.4c1.3-3.4,3.1-7,5.3-10.8c2.2-3.9,4.7-7.9,7.5-12.1c2.8-4.2,5.6-8.3,8.6-12.3
		c6.8-9.4,14.6-19.2,23.4-29.6c-1.4,0-3.6,1-6.5,2.9c-2.9,1.9-6.2,4.6-9.9,7.9c-3.7,3.3-7.7,7.1-11.9,11.4
		c-4.3,4.3-8.5,8.8-12.7,13.5c-4.2,4.7-8.2,9.5-12.1,14.2c-3.9,4.8-7.3,9.3-10.3,13.5c-3,4.3-5.4,8.1-7.2,11.6
		c-1.8,3.5-2.7,6.1-2.7,8c0,1-0.7,1.7-2,1.8c-1.3,0.2-2.8-0.1-4.5-0.9c-1.7-0.8-3.1-2.2-4.5-4.2c-1.3-2-2-4.7-2-8.1
		c0-6.3,1.6-13.2,4.8-20.6c3.2-7.4,7.2-14.9,12-22.5c4.8-7.6,10-15.1,15.6-22.6c5.6-7.5,10.8-14.4,15.6-20.9
		c4.8-6.5,8.8-12.3,12-17.4c3.2-5.1,4.8-9.1,4.8-12c0-2.8-1.3-5.3-3.8-7.5C90,6,86.4,5,81.8,5H81.9z"/>
	<path class="st0" d="M219.2,95c0.6-0.8,1.2-1.3,1.8-1.5c0.7-0.2,1.3-0.2,1.8,0.1c0.5,0.3,0.8,0.8,0.9,1.6c0,0.8-0.3,1.7-1.1,2.8
		c-0.5,0.8-1.7,2.4-3.8,5c-2.1,2.6-4.7,5.6-7.8,9.1c-3.1,3.5-6.6,7.1-10.3,10.9c-3.8,3.8-7.6,7.3-11.6,10.5
		c-3.9,3.2-7.8,5.8-11.5,7.9c-3.7,2.1-7.1,3.1-10.1,3.1c-2.6-0.2-4.8-0.9-6.8-2.3c-1.7-1.1-3.3-2.9-4.7-5.2
		c-1.4-2.3-2.1-5.7-2.1-10.1c0-4.3,0.9-8.5,2.6-12.8c1.7-4.3,3.9-8.4,6.6-12.3c2.7-3.9,5.7-7.6,9-11c3.3-3.4,6.5-6.4,9.7-8.9
		c3.2-2.6,6.1-4.5,8.9-6c2.7-1.4,4.9-2.1,6.5-2.1c0.9,0,2,0.2,3.1,0.6c1.1,0.4,2.2,1.2,3.2,2.3c1,1.1,1.8,2.7,2.6,4.8
		c0.7,2.1,1.1,4.8,1.1,8.2c0,2.3-0.8,4.7-2.3,7.4c-1.5,2.7-3.5,5.4-5.8,8.1c-2.4,2.7-5,5.3-7.9,7.9c-2.9,2.6-5.7,4.8-8.5,6.8
		c-2.8,2-5.3,3.6-7.7,4.7c-2.3,1.2-4.1,1.8-5.3,1.8c-0.9,1.8-1.4,3.4-1.7,4.8c-0.2,1.2-0.1,2.3,0.4,3.3c0.4,0.9,1.6,1.4,3.5,1.4
		c2.4,0,5.6-1.3,9.6-3.8c4.1-2.5,8.4-5.7,13-9.6c4.6-3.9,9.1-8.3,13.5-13.2C212.3,104.5,216,99.7,219.2,95z M195.6,91.3
		c-0.6,0-1.4,0.4-2.4,1.3c-1,0.9-2.2,2-3.3,3.4c-1.2,1.4-2.5,3-3.8,4.8c-1.4,1.8-2.7,3.6-4,5.4c-3.1,4.4-6.5,9.4-10.1,14.9
		c4.8-2.8,9-6,12.5-9.4c3.5-3.4,6.3-6.7,8.4-9.7c2.1-3,3.4-5.6,3.8-7.6C197.1,92.3,196.8,91.3,195.6,91.3z"/>
	<path class="st0" d="M243.7,144.4c-2.7,0-5-1.7-6.9-5c-1.8-3.4-2.8-7.7-2.8-13.1c0-1.5,0.3-3.2,0.9-5.2c0.6-1.9,1.4-4,2.4-6.1
		c1-2.1,2.1-4.3,3.3-6.6c1.2-2.3,2.5-4.5,3.8-6.7c3.1-5,6.6-10.3,10.5-15.7c-0.8,0-2.4,1.2-5,3.5c-2.6,2.4-5.5,5.3-8.9,8.9
		c-3.4,3.6-6.9,7.6-10.6,11.9c-3.7,4.3-7.1,8.5-10.1,12.5c-3.1,4-5.6,7.6-7.7,10.6c-2,3.1-3,5.2-3,6.4c0,2.7-0.5,4.1-1.5,4.3
		c-1,0.2-2.1-0.4-3.3-1.7c-1.2-1.3-2.3-3.3-3.3-5.8c-1-2.5-1.5-5.2-1.5-8c0-1.9,0.7-4.3,2.1-7.1c1.4-2.8,3.1-5.9,5.2-9.2
		c2.1-3.3,4.3-6.8,6.8-10.3c2.5-3.6,4.7-7.1,6.8-10.5c2.1-3.4,3.8-6.7,5.2-9.8c1.4-3.1,2.1-5.9,2.1-8.2c0-1.2,0.5-1.8,1.6-1.8
		c1.1,0,2.3,0.7,3.5,1.9c1.3,1.2,2.5,3.1,3.5,5.5c1.1,2.5,1.6,5.4,1.6,8.9c0,1.8-0.3,3.4-0.8,4.7c-0.5,1.4-1.1,2.6-1.6,3.6
		c-0.8,1.1-1.6,2.2-2.4,3.3c4.8-4.9,9.3-9.3,13.5-13c1.8-1.6,3.6-3.2,5.3-4.8c1.7-1.6,3.4-3,5-4.3c1.6-1.2,3-2.2,4.2-3
		c1.2-0.8,2.1-1.1,2.7-1.1c1.2,0,2.3,0.4,3.3,1.2c1,0.8,1.8,1.9,2.5,3.3c0.7,1.4,1.2,2.9,1.6,4.6c0.4,1.7,0.6,3.4,0.6,5.1
		c0,1.1-0.8,3.1-2.4,6c-1.6,2.9-3.6,6.2-6,9.9c-2.4,3.7-4.8,7.5-7.4,11.4c-2.6,3.9-4.9,7.5-6.9,10.8c-2,3.3-3.4,6-4.3,8.1
		c-0.9,2.1-0.8,3.2,0.4,3.2c2.1,0,4.8-1.4,8.3-4.1c3.4-2.7,7.1-6.2,11.1-10.4c3.9-4.2,7.9-8.9,11.8-14c4-5.1,7.5-10,10.6-14.7
		c0.5-0.8,1.1-1.3,1.8-1.5c0.7-0.2,1.3-0.2,1.8,0.1c0.5,0.3,0.7,0.8,0.8,1.6c0,0.8-0.3,1.7-1.1,2.8c-0.5,0.8-1.7,2.5-3.5,5.1
		c-1.9,2.6-4.2,5.7-6.9,9.2c-2.7,3.5-5.7,7.2-8.9,11.1c-3.3,3.9-6.6,7.5-9.9,10.8c-3.4,3.3-6.6,6-9.6,8.2
		C248.8,143.4,246,144.4,243.7,144.4z"/>
	<path class="st0" d="M317.4,73.7c2.1,0,4,0.8,5.7,2.3c1.7,1.6,3,3.3,4,5.2c1,1.9,1.6,3.6,1.8,5.2c0.2,1.6,0,2.3-0.8,2.3
		c-2.7,0-6,1.2-9.7,3.6c-3.7,2.4-7.5,5.4-11.3,9c-3.8,3.6-7.5,7.5-11.1,11.7c-3.5,4.2-6.5,8.1-8.8,11.7c-2.3,3.6-3.9,6.6-4.6,9
		c-0.8,2.4-0.3,3.6,1.4,3.6c0.6,0,1.8-0.8,3.6-2.4c1.8-1.6,4-3.6,6.4-6.1c2.4-2.5,4.9-5.1,7.5-8.1c2.6-2.9,5-5.7,7.1-8.2
		c2.1-2.6,3.8-4.8,5.1-6.7c1.3-1.9,1.8-3.1,1.6-3.5c-0.4-0.7-0.1-1,0.9-1c1,0,2.2,0.4,3.5,1.1c1.4,0.8,2.6,1.9,3.8,3.5
		c1.2,1.6,1.8,3.7,1.8,6.2c0,2.6-0.7,5.3-2,8.3c-1.3,3-2.7,5.7-4.1,8.2c-1.4,2.5-2.5,4.6-3.3,6.2c-0.8,1.7-0.6,2.5,0.6,2.5
		c1.1,0,3.2-1.3,6.1-4c2.9-2.6,6.2-6,9.9-10.1c3.7-4.1,7.5-8.6,11.5-13.6c4-5,7.5-9.8,10.6-14.5c0.6-0.8,1.2-1.3,1.8-1.5
		c0.7-0.2,1.3-0.2,1.8,0.1c0.5,0.3,0.8,0.8,0.9,1.6c0,0.8-0.3,1.7-1.1,2.8c-0.6,0.8-1.8,2.4-3.6,5c-1.8,2.6-4.1,5.6-6.7,9.1
		c-2.6,3.5-5.6,7.1-8.8,10.9c-3.2,3.8-6.4,7.3-9.6,10.5c-3.2,3.2-6.3,5.8-9.2,7.9c-2.9,2-5.5,3.1-7.7,3.1c-1.4,0-2.8-0.5-4.3-1.4
		c-1.4-0.9-2.6-2.1-3.7-3.4c-1-1.3-1.9-2.7-2.6-4.1c-0.7-1.4-1-2.6-1-3.4c0-0.9,0.1-1.8,0.4-2.8c0.2-1,0.5-1.9,0.8-2.8
		c0.4-1,0.8-2.1,1.3-3.1c-3.4,3.9-6.6,7.4-9.6,10.5c-2.6,2.6-5.1,5.1-7.7,7.2c-2.6,2.2-4.5,3.3-5.8,3.3c-1.3,0-2.7-0.4-4.3-1.2
		c-1.5-0.8-3-1.9-4.3-3.3c-1.4-1.4-2.5-3.1-3.4-5.2c-0.9-2-1.3-4.3-1.3-6.9c0-2.7,0.9-6,2.6-9.7c1.7-3.7,4-7.6,6.9-11.6
		c2.8-4,6.1-8,9.7-11.9c3.6-3.9,7.3-7.4,11.1-10.6c3.7-3.1,7.3-5.6,10.8-7.5C311.7,74.7,314.7,73.7,317.4,73.7z"/>
	<path class="st0" d="M428.5,94c0.6-0.8,1.2-1.3,1.8-1.5c0.7-0.2,1.3-0.2,1.8,0.1c0.5,0.3,0.8,0.8,0.9,1.6c0,0.8-0.3,1.7-1.1,2.8
		c-0.7,0.9-2.2,2.7-4.5,5.3c-2.3,2.6-5.1,5.3-8.4,8.2c-3.3,2.9-6.8,5.6-10.6,8.2c-3.8,2.6-7.5,4.4-11.1,5.5l-0.7,1
		c-2.2,2.6-4.4,5.2-6.8,7.5c-2.4,2.4-4.9,4.4-7.5,6.2c-2.6,1.7-5.4,3.1-8.2,4.1c-2.8,1-5.8,1.5-8.8,1.5c-2.2,0-3.8-0.3-5-0.8
		c-1.2-0.5-2.1-1.1-2.6-1.8c-0.6-0.7-0.9-1.4-1-2.1c-0.1-0.7-0.1-1.1-0.1-1.4c0-2.2,1.2-4.2,3.5-6c2.3-1.8,4.9-3.4,7.7-4.7
		c3.3-1.5,7.1-2.8,11.3-4c3.4-5.9,6.4-11.4,9.1-16.6c1.1-2.2,2.2-4.4,3.3-6.7c1.1-2.3,2.1-4.5,3-6.6c0.9-2.1,1.6-4,2.1-5.7
		c0.5-1.7,0.8-3.1,0.8-4.3c0-1-0.2-2.1-0.7-3.1c-0.5-1-1.5-1.6-3-1.6c-2,0-4.4,1.3-7.4,3.8c-2.9,2.6-6.1,5.9-9.6,10.1
		c-3.5,4.2-7,9-10.8,14.4c-3.7,5.4-7.4,11-11,16.8c-3.6,5.8-7,11.5-10.3,17.2c-3.3,5.7-6.1,10.9-8.5,15.7c-2.4,4.7-4.3,8.8-5.8,12.1
		c-1.5,3.4-2.2,5.6-2.2,6.6c0,1.4-0.5,2-1.6,1.8c-1-0.2-2.2-0.9-3.4-2.2c-1.2-1.3-2.4-3-3.4-5c-1-2.1-1.6-4.3-1.6-6.5
		c0-2.5,1.2-6.1,3.5-11c2.3-4.9,5.2-10.3,8.7-16.4c3.5-6.1,7.3-12.5,11.3-19.1c4-6.7,7.8-13,11.3-19.1c3.5-6.1,6.4-11.6,8.7-16.4
		c2.3-4.9,3.5-8.6,3.5-11.1v-3.8c0-0.7,0.7-1.2,2.2-1.7c1.4-0.5,3-0.4,4.7,0.3c1.7,0.7,3.2,2.1,4.7,4.4c1.4,2.3,2.2,5.8,2.2,10.5
		c0,1-0.1,2-0.2,2.8c-0.1,0.8-0.3,1.5-0.5,2.1c-0.2,0.7-0.4,1.2-0.6,1.7c2-2.5,4.1-4.7,6.4-6.7c1.9-1.6,4.1-3.1,6.5-4.5
		c2.5-1.4,5-2.1,7.5-2.1c2.6,0,4.7,0.5,6.3,1.4c1.7,0.9,3,2.2,3.9,3.6c0.9,1.5,1.6,3.1,2,4.8c0.4,1.7,0.6,3.4,0.6,5
		c0,1.7-0.1,3.6-0.3,5.8c-0.2,2.2-0.6,4.5-1.2,7c-0.6,2.5-1.5,5.1-2.7,7.9c-1.2,2.7-2.7,5.6-4.7,8.5c4.1-2.2,8.5-5.2,13.3-9.1
		C420.3,104.6,424.6,99.7,428.5,94z M365.6,136.7c0,0.9,0.2,1.4,0.5,1.6c0.3,0.2,0.8,0.2,1.3-0.1c0.6-0.3,1.2-0.8,1.9-1.4
		c0.7-0.7,1.4-1.4,2.2-2.1c1.7-1.8,3.6-4.2,5.9-7.1c-2.2,1-4.2,2.1-5.9,3.1c-1.5,0.9-2.9,1.9-4.1,3
		C366.2,134.7,365.6,135.7,365.6,136.7z"/>
	<path class="st0" d="M488.8,94.8c0.5-0.8,1.1-1.3,1.8-1.5c0.7-0.2,1.3-0.2,1.8,0.1c0.5,0.3,0.7,0.8,0.8,1.6c0,0.8-0.3,1.7-1.1,2.8
		c-0.5,0.8-1.7,2.4-3.5,5c-1.9,2.6-4.2,5.6-6.9,9.1c-2.7,3.5-5.8,7.1-9.1,10.9c-3.3,3.8-6.6,7.3-9.9,10.6c-3.3,3.2-6.5,5.9-9.5,7.9
		c-3,2.1-5.6,3.1-7.8,3.1c-2.7,0-5-0.5-6.7-1.6c-1.7-1-3-2.4-4-4c-0.9-1.6-1.6-3.4-2-5.5c-0.4-2-0.6-4-0.6-5.9c0-2,0.6-4.4,1.9-7.2
		c1.3-2.8,2.8-5.8,4.7-8.9c1.8-3.2,3.8-6.4,5.8-9.9c2-3.4,3.8-6.8,5.3-10.1c-2.1,0.9-4.7,1.7-8,2.6c-3.3,0.9-6.8,1.3-10.7,1.3
		c-1,0-2.2-0.2-3.5-0.6c-1.3-0.4-2.5-1.2-3.6-2.5c-1.1-1.3-2.1-3.1-2.8-5.5c-0.8-2.4-1.1-5.5-1.1-9.5c0-5.5,0.9-10.6,2.8-15.2
		c1.8-4.7,4.1-8.7,6.9-12c2.7-3.4,5.6-6,8.7-7.9c3.1-1.9,5.8-2.8,8.3-2.8c2.6,0,4.9,0.8,6.8,2.4c1.9,1.6,2.8,3.9,2.8,6.8
		c0,1.4-0.3,3.1-0.9,5c-0.6,1.9-1.3,3.9-2.3,5.9c-0.9,2-2,4.1-3.2,6.3c-1.2,2.2-2.4,4.3-3.6,6.2c-2.9,4.7-6.2,9.6-9.8,14.7
		c3.5-1.8,6.8-3.5,9.8-5.1c2.6-1.3,5-2.6,7.4-3.8c2.4-1.2,4-2.1,4.7-2.6c0.9-0.6,1.9-1.2,2.8-1.8c0.9-0.6,2-0.4,3.1,0.5
		c0.6,0.5,1.6,1.3,3,2.5c1.5,1.2,2.8,2.6,3.9,4.2c1.1,1.6,1.9,3.4,2.2,5.2c0.3,1.9-0.3,3.7-1.9,5.5c-0.2,0.2-0.3,0.4-0.4,0.5
		c-0.1,0.1-0.2,0.3-0.4,0.5c-1.2,1.6-2.9,3.8-5,6.7c-2.1,2.8-4.3,5.9-6.5,9.2c-2.3,3.3-4.4,6.6-6.5,10c-2.1,3.4-3.7,6.4-4.9,9.2
		c-1.2,2.8-1.8,5.1-1.7,6.8c0,1.7,1.1,2.6,3.2,2.6v0.1c1,0,3.1-1.3,6.2-4c3.1-2.6,6.5-6,10.3-10.1c3.8-4.1,7.8-8.7,11.9-13.7
		C482,104.4,485.7,99.6,488.8,94.8z M430.8,77c0,1.3,0.1,2.5,0.4,3.4c0.2,0.9,0.5,1.8,0.9,2.4c0.4,0.8,0.9,1.4,1.4,2
		c2-3.8,4-7.4,6-10.8c2-3.4,3.6-6.5,5-9.1c1.3-2.6,2.2-4.7,2.6-6.3c0.4-1.6,0-2.3-1.3-2.3c-1.2,0-2.7,0.8-4.4,2.3
		c-1.7,1.5-3.3,3.4-4.9,5.5c-1.6,2.2-2.9,4.5-4,6.9C431.3,73.2,430.8,75.3,430.8,77z"/>
	<path class="st0" d="M525.6,127.4c-1,0-2-0.2-2.9-0.6c-0.9-0.4-1.6-0.8-2.2-1.3c-0.6,0.8-1.1,1.4-1.6,1.8c-0.2,0.1-0.4,0.3-0.6,0.6
		c-0.2,0.2-0.4,0.4-0.6,0.7c-0.2,0.3-0.5,0.6-0.8,1c-3.4,3.6-7.1,6.8-11.1,9.5c-4,2.7-7.9,4.4-11.9,5c-0.1,0.1-0.2,0.1-0.4,0.1
		c-0.4,0-0.6,0-0.7,0.1h-1.4c-1.4,0-3-0.2-4.7-0.7c-1.8-0.5-3.4-1.3-5-2.6c-1.6-1.3-2.9-3.1-3.9-5.4c-1-2.3-1.6-5.4-1.6-9.1
		c0-4.3,0.7-8.5,2.1-12.8c1.4-4.3,3.2-8.3,5.5-12.2c2.3-3.9,5-7.5,7.9-10.9c3-3.4,6-6.4,9.2-8.9c3.2-2.5,6.3-4.5,9.4-5.9
		c3.1-1.4,6-2.1,8.5-2.1c4,0,7.4,1.1,10.2,3.3c2.8,2.2,5.1,4.8,6.9,7.9c0.3,0.5,0,1.1-0.9,1.8c-0.9,0.8-2.9,1.1-6.1,1.1
		c-3.9,0-7.8,1.3-11.6,3.8c-3.9,2.5-7.5,5.6-10.8,9.4c-3.3,3.7-6.2,7.8-8.7,12.1c-2.5,4.3-4.4,8.4-5.7,12.1
		c-1.3,3.7-1.9,6.9-1.8,9.4c0.1,2.5,1.3,3.8,3.3,3.8c2.1,0,4.5-0.9,7.2-2.6c2.7-1.7,5.3-3.6,7.8-5.8c2.9-2.5,5.9-5.2,8.8-8.4
		c-0.3-0.7-0.5-1.5-0.7-2.4c-0.2-0.8-0.3-1.7-0.4-2.7c-0.1-1-0.1-2.2-0.1-3.5c0-2.8,0.7-5.2,2.2-7.2c1.5-2,3.1-3.3,4.8-3.9
		c1.7-0.6,3.4-0.4,4.8,0.6c1.5,1,2.2,3,2.2,5.9c0,1.3-0.6,3.1-1.8,5.2c-1.2,2.2-3,4.8-5.2,7.8c0.2,0.2,0.6,0.4,1.2,0.6
		c0.6,0.2,1.1,0.4,1.5,0.4c1.7,0,3.4-0.6,5.1-1.9c1.7-1.3,3.5-3.1,5.5-5.5c2-2.4,4.1-5.3,6.5-8.8c2.3-3.4,4.9-7.3,7.7-11.7
		c0.5-0.8,1.1-1.3,1.8-1.5c0.7-0.2,1.3-0.2,1.8,0.1c0.5,0.3,0.7,0.8,0.8,1.6c0,0.8-0.3,1.7-1.1,2.8c-0.5,0.8-1.2,2-2.2,3.8
		c-1,1.7-2.2,3.7-3.7,5.9c-1.5,2.2-3.1,4.5-4.9,6.9c-1.8,2.4-3.7,4.6-5.6,6.6c-1.9,2-3.9,3.6-6,4.9
		C529.6,126.8,527.6,127.4,525.6,127.4z"/>
</g>
</svg>
